@startuml Hacer una publicacion UC7

hide empty description

[*] --> EsperandoContenido
EsperandoContenido --> ValidandoContenido : Contenido ingresado
ValidandoContenido --> PublicacionHecha : Contenido válido
ValidandoContenido --> ErrorContenido : Contenido inválido
ErrorContenido --> EsperandoContenido : Reintentar
PublicacionHecha --> [*] : Publicación realizada

@enduml
