@startuml Diagrama_de_subestados

hide empty description

' Estado inicial
state decision <<choice>>
[*] --> decision
decision --> Registrando : Registrar Usuario
state Registrando {
    [*] --> CompletandoDatos : Completar datos
    CompletandoDatos --> VerificandoCorreo : Verificar correo electrónico
    VerificandoCorreo --> Confirmado : Confirmar cuenta
    Confirmado --> [*]
}

' Subestados del Usuario

decision --> IniciandoSesion : Iniciar sesión
state IniciandoSesion {

    UsuarioInactivo --> UsuarioActivo : Activar cuenta
    UsuarioActivo --> UsuarioSuspendido : Cuenta suspendida por violación de reglas
    UsuarioSuspendido --> UsuarioActivo : Reactivar cuenta
    UsuarioActivo --> Sesión_Iniciada : Iniciar sesión
    Sesión_Iniciada --> [*]
}

' Pag Principal
state Dashboard
IniciandoSesion --> Dashboard : Sesion iniciada

' Estado inicial del Evento
Dashboard--> publicandoEvento : Publicar evento
Registrando --> IniciandoSesion: Iniciar sesión

' Subestados del Evento
state publicandoEvento {
    [*] --> CreacionEvento : Crear evento
    state RevisandoEvento{
        [*] --> RevisionEvento
RevisionEvento --> AprobandoEvento  
RevisionEvento --> RechazandoEvento
RechazandoEvento -->  [*]  
    }
    state EventoBorrador <<choice>>
    state decision2 <<choice>>
    CreacionEvento --> EventoBorrador : Guardar como borrador
    EventoBorrador --> RevisandoEvento : Publicar evento
    AprobandoEvento --> EventoPublicado : Aprobar evento
    EventoBorrador --> EventoCancelado : Cancelar evento
    EventoCancelado --> [*]
    EventoModificado --> [*]
    EventoPublicado --> decision2
    decision2 --> EventoModificado: Modificar Evento               
    decision2 --> [*]               
}

' Estado inicial del Comentario
Dashboard--> RealizandoComentario : Realizar comentario

' Subestados del Comentario
state RealizandoComentario {
    [*] --> CreacionComentario : Crear comentario
    CreacionComentario --> ComentarioPublicado : Publicar comentario
    state decision5 <<choice>>
    ComentarioPublicado --> decision5 
    decision5  --> [*]
    decision5 --> ComentarioEliminado : Eliminar comentario
    ComentarioEliminado --> [*]
}

'Estado Haciendo Publicación
Dashboard--> HaciendoPublicacion: Hacer Publicación
state HaciendoPublicacion{
     [*] --> CreandoPublicacion : Crear Publicación
    state RevisandoPublicacion{
state RevisionPublicacion <<choice>>
[*] --> RevisionPublicacion
RevisionPublicacion --> AprobandoPublicacion  
RevisionPublicacion --> RechazandoPublicacion
RechazandoPublicacion  -->  [*]
    }

    AprobandoPublicacion --> PublicacionCreada : Aprobar Publicación
    state decision3 <<choice>>
    state decision4 <<choice>>
   
    CreandoPublicacion --> decision4
    decision4 --> PublicacionCancelada : Cancelar Publicación
    decision4 --> RevisandoPublicacion : Verificar Publicación
    PublicacionCancelada --> [*]
    PublicacionCreada --> decision3
    decision3 --> PublicacionModificada: Modificar Publicación
    decision3 --> [*]

    PublicacionModificada --> [*]
   
}

state CerrandoSesion 
HaciendoPublicacion --> Dashboard : Elegir opcion
RealizandoComentario --> Dashboard : Elegir opcion
publicandoEvento --> Dashboard : Elegir opcion
Dashboard --> CerrandoSesion : Cerrar sesión

CerrandoSesion -->[*]

@enduml